<?xml version="1.0" encoding="UTF-8"?>
<svg version="1.1" xmlns="http://www.w3.org/2000/svg" width="420" height="93">
<path d="M0 0 C128.7 0 257.4 0 390 0 C390 33.99 390 67.98 390 103 C261.3 103 132.6 103 0 103 C0 69.01 0 35.02 0 0 Z " fill="#FDFDFD" transform="translate(0,0)"/>
<path d="M0 0 C3.15380666 1.29324374 5.43855248 2.87710497 7 6 C7.61488281 5.97679687 8.22976562 5.95359375 8.86328125 5.9296875 C9.67152344 5.91164063 10.47976562 5.89359375 11.3125 5.875 C12.11300781 5.85179687 12.91351563 5.82859375 13.73828125 5.8046875 C16 6 16 6 19 8 C19 8.66 19 9.32 19 10 C19.78375 9.95875 20.5675 9.9175 21.375 9.875 C24 10 24 10 26 12 C26 12.99 26 13.98 26 15 C27.3303125 14.8453125 27.3303125 14.8453125 28.6875 14.6875 C32 15 32 15 34.875 17 C37.23580148 20.33289621 37.58449805 21.99110331 37.6640625 25.9375 C36.59706372 29.2514727 34.96313221 31.27151025 32 33 C27.82029294 33.77658322 23.67909556 33.72425063 19.4375 33.69921875 C18.21345459 33.70637405 16.98940918 33.71352936 15.72827148 33.72090149 C13.1427483 33.72867891 10.55715947 33.72366571 7.97167969 33.70678711 C4.01371542 33.6875666 0.0592629 33.72694671 -3.8984375 33.77148438 C-6.41146042 33.77177473 -8.92448658 33.76863479 -11.4375 33.76171875 C-13.21265991 33.78464241 -13.21265991 33.78464241 -15.02368164 33.80802917 C-22.97219317 33.69516535 -22.97219317 33.69516535 -25.86523438 31.73843384 C-28.22161712 29.0705782 -29.01188731 26.93224236 -29.625 23.4375 C-28.83254018 19.078971 -27.54593902 17.60035528 -24 15 C-21.1875 14.6875 -21.1875 14.6875 -19 15 C-19.103125 13.96875 -19.20625 12.9375 -19.3125 11.875 C-18.90097865 6.77213531 -17.56418653 5.56418653 -14 2 C-9.54001851 -0.97332099 -5.23104347 -0.62682975 0 0 Z " fill="#FDFDFE" transform="translate(33,20)"/>
<path d="M0 0 C2.33030949 1.23611702 3.80116155 2.23866155 5.6875 4.125 C7.55717359 4.40049833 7.55717359 4.40049833 9.6875 4.4375 C15.1992538 4.93856853 20.21527218 6.83294341 24.6875 10.125 C25.46875 12.29296875 25.46875 12.29296875 25.6875 14.125 C27.234375 14.1559375 27.234375 14.1559375 28.8125 14.1875 C33.31824618 15.27759988 34.83845695 16.56335241 37.58203125 20.16015625 C39.38185874 23.35914292 39.33608142 25.55780221 38.6875 29.125 C36.43182457 33.46926379 34.21903136 36.18291513 29.6875 38.125 C26.375 38.3125 26.375 38.3125 23.6875 38.125 C23.80148665 39.75080966 23.92905659 41.37567157 24.0625 43 C24.16691406 44.35738281 24.16691406 44.35738281 24.2734375 45.7421875 C24.48318132 48.30441903 24.48318132 48.30441903 26.6875 50.125 C29.07123311 50.07055353 29.07123311 50.07055353 31.6875 49.625 C34.375 49.21875 34.375 49.21875 36.6875 49.125 C37.3475 49.785 38.0075 50.445 38.6875 51.125 C38.35778521 54.42214793 38.0648161 55.7476839 35.6875 58.125 C33.0625 58.25 33.0625 58.25 30.6875 58.125 C30.3575 57.135 30.0275 56.145 29.6875 55.125 C28.924375 55.021875 28.16125 54.91875 27.375 54.8125 C24.46882022 54.06905866 23.48836951 53.46613037 21.6875 51.125 C20.22968666 46.75155999 20.6276968 42.72984643 20.6875 38.125 C17.3875 38.125 14.0875 38.125 10.6875 38.125 C10.6875 44.395 10.6875 50.665 10.6875 57.125 C11.6775 57.455 12.6675 57.785 13.6875 58.125 C13.8125 61 13.8125 61 13.6875 64.125 C11.6875 66.125 11.6875 66.125 9.1875 66.4375 C8.3625 66.334375 7.5375 66.23125 6.6875 66.125 C4.6875 63.125 4.6875 63.125 5 60.5 C5.6875 58.125 5.6875 58.125 6.6875 57.125 C6.84332303 55.78484779 6.93794142 54.43741097 7.00390625 53.08984375 C7.06674805 51.87651367 7.06674805 51.87651367 7.13085938 50.63867188 C7.17017578 49.78853516 7.20949219 48.93839844 7.25 48.0625 C7.31477539 46.78149414 7.31477539 46.78149414 7.38085938 45.47460938 C7.48726702 43.35827963 7.58791731 41.24166187 7.6875 39.125 C4.3875 39.125 1.0875 39.125 -2.3125 39.125 C-2.19902844 42.91733901 -2.07227214 46.70841049 -1.9375 50.5 C-1.9065625 51.58023438 -1.875625 52.66046875 -1.84375 53.7734375 C-1.78574219 55.3203125 -1.78574219 55.3203125 -1.7265625 56.8984375 C-1.6951416 57.85153809 -1.6637207 58.80463867 -1.63134766 59.78662109 C-1.52694204 62.31395176 -1.52694204 62.31395176 0.6875 64.125 C0.35778521 67.42214793 0.0648161 68.7476839 -2.3125 71.125 C-5.60964793 70.79528521 -6.9351839 70.5023161 -9.3125 68.125 C-8.75694444 63.56944444 -8.75694444 63.56944444 -7.3125 62.125 C-7.15485595 60.34630274 -7.06149323 58.56181524 -6.99609375 56.77734375 C-6.95419922 55.69775391 -6.91230469 54.61816406 -6.86914062 53.50585938 C-6.82982422 52.36955078 -6.79050781 51.23324219 -6.75 50.0625 C-6.68522461 48.35223633 -6.68522461 48.35223633 -6.61914062 46.60742188 C-6.51267161 43.78007805 -6.41065793 40.95264262 -6.3125 38.125 C-9.6125 38.125 -12.9125 38.125 -16.3125 38.125 C-16.25449219 38.92164063 -16.19648438 39.71828125 -16.13671875 40.5390625 C-15.72211554 50.27631501 -15.72211554 50.27631501 -18.4375 53.625 C-25.65212264 59.89858491 -25.65212264 59.89858491 -30.0625 60.5 C-32.3125 60.125 -32.3125 60.125 -34.3125 58.125 C-34.5625 55.625 -34.5625 55.625 -34.3125 53.125 C-32.3125 51.125 -32.3125 51.125 -30 50.9375 C-27.35879791 51.12176991 -24.89127091 51.53556665 -22.3125 52.125 C-20.12255752 48.84008627 -19.95972661 47.29404361 -19.6875 43.4375 C-19.61273438 42.44363281 -19.53796875 41.44976562 -19.4609375 40.42578125 C-19.41195313 39.66652344 -19.36296875 38.90726563 -19.3125 38.125 C-20.529375 38.2075 -21.74625 38.29 -23 38.375 C-26.28857044 38.375 -27.25375938 38.16075516 -30.1875 36.375 C-34.07584834 32.25792529 -34.7655427 28.85083087 -34.62890625 23.3125 C-34.14402097 19.96020668 -32.80521591 18.34823311 -30.3125 16.125 C-29.466875 15.856875 -28.62125 15.58875 -27.75 15.3125 C-24.8775733 14.26502189 -24.8775733 14.26502189 -24 10.4375 C-23.66548828 9.37789062 -23.66548828 9.37789062 -23.32421875 8.296875 C-21.44646738 4.26587207 -17.90796276 1.62587631 -14.3125 -0.875 C-9.08156793 -2.61864402 -4.92639445 -2.40945474 0 0 Z M-19.3125 7.125 C-21.7419516 10.7691774 -21.47429575 12.83741272 -21.3125 17.125 C-22.034375 17.021875 -22.75625 16.91875 -23.5 16.8125 C-26.50989978 16.91028445 -26.50989978 16.91028445 -29.125 19.1875 C-31.55109838 21.99146313 -31.55109838 21.99146313 -31.9375 25.5625 C-31.32438731 29.05724236 -30.53411712 31.1955782 -28.17773438 33.86343384 C-24.00567188 36.68524161 -18.59753304 35.94931773 -13.75 35.88671875 C-11.91393188 35.89177177 -11.91393188 35.89177177 -10.04077148 35.89692688 C-7.4551981 35.89662814 -4.86958939 35.88138962 -2.28417969 35.85229492 C1.67362553 35.81263902 5.62807762 35.83158407 9.5859375 35.85742188 C12.09897134 35.84986251 14.61199773 35.83890881 17.125 35.82421875 C18.30843994 35.83120285 19.49187988 35.83818695 20.71118164 35.84538269 C27.39331951 35.93218064 27.39331951 35.93218064 32.93115234 32.71020508 C35.12904456 29.47508126 35.43043708 27.85474384 35.171875 24.0625 C34.30651083 20.60104331 32.54551731 19.11318595 29.6875 17.125 C26.47688212 16.70609782 26.47688212 16.70609782 23.6875 17.125 C23.543125 16.485625 23.39875 15.84625 23.25 15.1875 C22.87742819 13.14954854 22.87742819 13.14954854 21.6875 12.125 C20.02132885 12.08436168 18.35361905 12.082279 16.6875 12.125 C16.1925 10.64 16.1925 10.64 15.6875 9.125 C13.27521439 7.91885719 12.03906774 8.17799331 9.375 8.375 C5.47914421 8.44389777 4.93259 8.32837255 1.75 5.6875 C1.069375 4.841875 0.38875 3.99625 -0.3125 3.125 C-7.26450234 -0.35100117 -14.38897065 1.69649329 -19.3125 7.125 Z " fill="#8C4DF8" transform="translate(35.3125,17.875)"/>
<path d="M0 0 C5.08643801 2.73885123 8.17004027 5.5101208 10 11 C10.67743639 18.49622232 10.49893369 24.7610606 6 31 C3.1013262 34.32810696 -0.4288988 34.76909857 -4.671875 35.1484375 C-8.54694517 34.90136927 -10.86008264 33.20462283 -14 31 C-14 36.28 -14 41.56 -14 47 C-16.64 47 -19.28 47 -22 47 C-22 31.82 -22 16.64 -22 1 C-19.36 1 -16.72 1 -14 1 C-14 2.32 -14 3.64 -14 5 C-13.34 5 -12.68 5 -12 5 C-12 4.34 -12 3.68 -12 3 C-8.0400439 -0.11996541 -4.96112016 -0.60926037 0 0 Z " fill="#0A0A0A" transform="translate(177,41)"/>
<path d="M0 0 C23.36 0 23.36 0 29.8125 5.5625 C32.62373698 8.96557634 32.28367131 12.81584814 32 17 C30.03475515 21.86632057 28.25784863 24.9275219 23.5 27.1875 C18.58920725 28.32750546 14.0383246 28.12288597 9 28 C9 33.28 9 38.56 9 44 C6.03 44 3.06 44 0 44 C0 29.48 0 14.96 0 0 Z " fill="#0A0A0A" transform="translate(303,31)"/>
<path d="M0 0 C2.82771002 1.40342066 5.13335388 2.94194763 7.3671875 5.17578125 C7.1796875 7.17578125 7.1796875 7.17578125 6.3671875 9.17578125 C3.3671875 11.17578125 3.3671875 11.17578125 1.4921875 10.98828125 C-0.6328125 10.17578125 -0.6328125 10.17578125 -2.8828125 8.61328125 C-6.53799553 6.70261739 -9.58797116 6.28509902 -13.6328125 7.17578125 C-16.85235895 9.71031782 -18.33713685 11.2887543 -19.6328125 15.17578125 C-20.12399459 21.72172712 -20.47326818 27.56280757 -16.6328125 33.17578125 C-14.857167 35.36745634 -14.857167 35.36745634 -12.57421875 35.40625 C-11.78917969 35.39207031 -11.00414062 35.37789062 -10.1953125 35.36328125 C-9.41285156 35.35683594 -8.63039063 35.35039063 -7.82421875 35.34375 C-5.45481573 35.25133794 -5.45481573 35.25133794 -2.6328125 34.17578125 C-1.83068622 32.30190909 -1.83068622 32.30190909 -1.4453125 30.11328125 C-1.043125 28.16421875 -1.043125 28.16421875 -0.6328125 26.17578125 C-3.9328125 26.17578125 -7.2328125 26.17578125 -10.6328125 26.17578125 C-10.6328125 23.86578125 -10.6328125 21.55578125 -10.6328125 19.17578125 C-4.3628125 19.17578125 1.9071875 19.17578125 8.3671875 19.17578125 C8.3671875 27.09578125 8.3671875 35.01578125 8.3671875 43.17578125 C5.7271875 43.17578125 3.0871875 43.17578125 0.3671875 43.17578125 C-0.1278125 40.70078125 -0.1278125 40.70078125 -0.6328125 38.17578125 C-1.3959375 38.98015625 -2.1590625 39.78453125 -2.9453125 40.61328125 C-6.04743468 43.57111868 -7.60818629 44.0753277 -11.8203125 44.48828125 C-16.53290983 44.10200278 -19.84840987 43.03193418 -23.6328125 40.17578125 C-30.15764951 32.31375541 -30.41254587 24.11181214 -29.6328125 14.17578125 C-27.97999773 7.84331021 -23.85317069 3.8917505 -18.6328125 0.17578125 C-13.51745167 -2.38189916 -5.33619393 -1.67052955 0 0 Z " fill="#090909" transform="translate(284.6328125,31.82421875)"/>
<path d="M0 0 C2.89873095 1.02412921 4.55686685 2.09316437 7 4 C5.75023244 7.65316671 5.32901247 8.78065836 2 11 C1.175 10.505 0.35 10.01 -0.5 9.5 C-4.81968538 7.64870627 -7.34409434 7.61200786 -12 8 C-12.66 8.66 -13.32 9.32 -14 10 C-13.67958603 12.60280568 -13.67958603 12.60280568 -13 15 C-12.05898437 15.24234375 -11.11796875 15.4846875 -10.1484375 15.734375 C-8.28058594 16.23710938 -8.28058594 16.23710938 -6.375 16.75 C-5.14523438 17.07484375 -3.91546875 17.3996875 -2.6484375 17.734375 C1.80946336 19.28079885 5.63335049 20.9857811 8.34375 24.98046875 C9.55923744 28.72098666 9.76005379 32.1347692 9 36 C6.69160226 39.92500436 4.34735947 42.55088018 0 44 C-2.62039714 44.17431213 -5.19062084 44.27684435 -7.8125 44.3125 C-8.86147461 44.35600586 -8.86147461 44.35600586 -9.93164062 44.40039062 C-15.08574505 44.46306916 -17.87614909 43.32250469 -22 40 C-22.66 39.34 -23.32 38.68 -24 38 C-23.875 36.0625 -23.875 36.0625 -23 34 C-20.9375 32.25 -20.9375 32.25 -19 31 C-18.030625 31.825 -17.06125 32.65 -16.0625 33.5 C-12.31782546 36.19769411 -9.45223821 36.50376601 -4.91796875 36.37109375 C-2.76740565 36.1406789 -2.76740565 36.1406789 -1 34 C-0.83312552 31.41645782 -0.83312552 31.41645782 -1 29 C-2.155 28.566875 -3.31 28.13375 -4.5 27.6875 C-5.22832031 27.41164063 -5.95664063 27.13578125 -6.70703125 26.8515625 C-8.17643892 26.30585403 -9.65269909 25.77805844 -11.13671875 25.2734375 C-15.41333815 23.79087611 -18.68623794 22.21334503 -22 19 C-23.35225582 14.94323255 -23.67765177 11.23718526 -23 7 C-16.66793663 -1.04343185 -9.47326771 -0.86029675 0 0 Z " fill="#080808" transform="translate(101,31)"/>
<path d="M0 0 C4.31208239 2.23589457 6.04422609 4.05896812 9 8 C9 11.63 9 15.26 9 19 C1.74 19 -5.52 19 -13 19 C-11.34922098 22.75170424 -11.34922098 22.75170424 -9 26 C-4.77509324 26.44562911 -1.15544948 26.67636067 2.5625 24.5 C3.036875 24.005 3.51125 23.51 4 23 C5.65 23.99 7.3 24.98 9 26 C8.38879059 28.75044235 7.6547988 30.50968415 5.3671875 32.22265625 C0.39751034 34.94136199 -3.37775729 35.63476934 -9 35 C-14.26594344 33.14143173 -16.79395768 30.39685804 -20 26 C-22.01138947 19.9658316 -22.07756502 13.23494967 -19.3125 7.5 C-13.485906 1.20097946 -8.51884118 -1.06303488 0 0 Z " fill="#0C0C0C" transform="translate(214,41)"/>
<path d="M0 0 C2.97 0 5.94 0 9 0 C9.33 8.58 9.66 17.16 10 26 C13.96 25.505 13.96 25.505 18 25 C20.15749784 21.76375324 20.28360488 20.65605934 20.4140625 16.89453125 C20.45273438 15.91162109 20.49140625 14.92871094 20.53125 13.91601562 C20.5621875 12.89185547 20.593125 11.86769531 20.625 10.8125 C20.66367188 9.77673828 20.70234375 8.74097656 20.7421875 7.67382812 C20.83648296 5.11606378 20.92208202 2.55830713 21 0 C23.97 0 26.94 0 30 0 C30 10.89 30 21.78 30 33 C27.36 33 24.72 33 22 33 C21.67 31.68 21.34 30.36 21 29 C20.525625 29.639375 20.05125 30.27875 19.5625 30.9375 C15.93337172 33.85850569 12.60759329 34.33538807 8 34 C4.4951522 32.34316286 2.60767345 31.20487868 0.85205078 27.72387695 C-0.100202 24.67966942 -0.22798664 22.22869741 -0.1953125 19.04296875 C-0.18886719 17.93115234 -0.18242188 16.81933594 -0.17578125 15.67382812 C-0.15902344 14.52333984 -0.14226562 13.37285156 -0.125 12.1875 C-0.11597656 11.01767578 -0.10695313 9.84785156 -0.09765625 8.64257812 C-0.07413732 5.76150947 -0.04126852 2.88086011 0 0 Z " fill="#121212" transform="translate(116,42)"/>
<path d="M0 0 C11.22 0 22.44 0 34 0 C34 2.64 34 5.28 34 8 C29.71 8 25.42 8 21 8 C21 19.88 21 31.76 21 44 C18.03 44 15.06 44 12 44 C12 31.79 12 19.58 12 7 C8.04 7 4.08 7 0 7 C0 4.69 0 2.38 0 0 Z " fill="#0F0F0F" transform="translate(339,31)"/>
<path d="M0 0 C0.639375 0.144375 1.27875 0.28875 1.9375 0.4375 C4.80770594 1.03026678 4.80770594 1.03026678 6.984375 1.11328125 C13.2527161 1.50227405 18.88809023 3.23706642 24 7 C24.78125 9.16796875 24.78125 9.16796875 25 11 C26.546875 11.0309375 26.546875 11.0309375 28.125 11.0625 C32.63074618 12.15259988 34.15095695 13.43835241 36.89453125 17.03515625 C38.69435874 20.23414292 38.64858142 22.43280221 38 26 C35.74432457 30.34426379 33.53153136 33.05791513 29 35 C25.6875 35.1875 25.6875 35.1875 23 35 C23.11398665 36.62580966 23.24155659 38.25067157 23.375 39.875 C23.44460937 40.77992187 23.51421875 41.68484375 23.5859375 42.6171875 C23.79568132 45.17941903 23.79568132 45.17941903 26 47 C28.38373311 46.94555353 28.38373311 46.94555353 31 46.5 C33.6875 46.09375 33.6875 46.09375 36 46 C36.66 46.66 37.32 47.32 38 48 C37.67028521 51.29714793 37.3773161 52.6226839 35 55 C32.375 55.125 32.375 55.125 30 55 C29.67 54.01 29.34 53.02 29 52 C28.236875 51.896875 27.47375 51.79375 26.6875 51.6875 C23.78132022 50.94405866 22.80086951 50.34113037 21 48 C19.54218666 43.62655999 19.9401968 39.60484643 20 35 C16.7 35 13.4 35 10 35 C10 41.27 10 47.54 10 54 C9.34 54 8.68 54 8 54 C8 47.73 8 41.46 8 35 C6.02 34.67 4.04 34.34 2 34 C2 33.67 2 33.34 2 33 C2.69561035 32.98541748 3.3912207 32.97083496 4.10791016 32.95581055 C7.28081338 32.88102031 10.45270008 32.78446188 13.625 32.6875 C15.26662109 32.65366211 15.26662109 32.65366211 16.94140625 32.61914062 C24.8923258 32.37957071 24.8923258 32.37957071 32 29 C33.60135272 25.79729456 33.48861584 22.47536616 33 19 C31.52006844 16.43661311 31.52006844 16.43661311 29 15 C27.96875 14.835 26.9375 14.67 25.875 14.5 C24.92625 14.335 23.9775 14.17 23 14 C22.30062468 12.68352881 21.63270867 11.34977849 21 10 C19.34385343 9.61781233 17.67542976 9.28604898 16 9 C15.54367188 8.49210937 15.08734375 7.98421875 14.6171875 7.4609375 C13.1004356 5.77688065 13.1004356 5.77688065 10.87890625 5.91796875 C10.11449219 6.00691406 9.35007812 6.09585937 8.5625 6.1875 C6.1640625 6.29296875 6.1640625 6.29296875 4 6 C1.4375 3 1.4375 3 0 0 Z " fill="#3597DE" transform="translate(36,21)"/>
<path d="M0 0 C2.64 0 5.28 0 8 0 C8.33 0.99 8.66 1.98 9 3 C9.33 2.505 9.66 2.01 10 1.5 C13.17572747 -0.88179561 16.10246066 -0.19168226 20 0 C19.67 2.31 19.34 4.62 19 7 C17.906875 7.0825 16.81375 7.165 15.6875 7.25 C12.04210198 7.63245256 12.04210198 7.63245256 10.30151367 9.73535156 C8.80049717 12.34713717 8.57960717 13.98888492 8.48828125 16.984375 C8.45283203 17.91894531 8.41738281 18.85351562 8.38085938 19.81640625 C8.34702148 21.26853516 8.34702148 21.26853516 8.3125 22.75 C8.27833984 23.73355469 8.24417969 24.71710938 8.20898438 25.73046875 C8.12664727 28.15353199 8.05745162 30.57623998 8 33 C5.36 33 2.72 33 0 33 C0 22.11 0 11.22 0 0 Z " fill="#050505" transform="translate(231,42)"/>
<path d="M0 0 C16.5 0 33 0 50 0 C50 0.33 50 0.66 50 1 C42.74 1.33 35.48 1.66 28 2 C29.32 2.33 30.64 2.66 32 3 C32 9.27 32 15.54 32 22 C33.65 22.33 35.3 22.66 37 23 C37.125 25.875 37.125 25.875 37 29 C35 31 35 31 32.5 31.3125 C31.675 31.209375 30.85 31.10625 30 31 C28 28 28 28 28.3125 25.375 C29 23 29 23 30 22 C30.15582303 20.65984779 30.25044142 19.31241097 30.31640625 17.96484375 C30.35830078 17.15595703 30.40019531 16.34707031 30.44335938 15.51367188 C30.48267578 14.66353516 30.52199219 13.81339844 30.5625 12.9375 C30.60568359 12.08349609 30.64886719 11.22949219 30.69335938 10.34960938 C30.79976702 8.23327963 30.90041731 6.11666187 31 4 C27.7 4 24.4 4 21 4 C21.11347156 7.79233901 21.24022786 11.58341049 21.375 15.375 C21.4059375 16.45523438 21.436875 17.53546875 21.46875 18.6484375 C21.50742187 19.6796875 21.54609375 20.7109375 21.5859375 21.7734375 C21.63306885 23.20308838 21.63306885 23.20308838 21.68115234 24.66162109 C21.78555796 27.18895176 21.78555796 27.18895176 24 29 C23.67028521 32.29714793 23.3773161 33.6226839 21 36 C17.70285207 35.67028521 16.3773161 35.3773161 14 33 C14.55555556 28.44444444 14.55555556 28.44444444 16 27 C16.15764405 25.22130274 16.25100677 23.43681524 16.31640625 21.65234375 C16.35830078 20.57275391 16.40019531 19.49316406 16.44335938 18.38085938 C16.48267578 17.24455078 16.52199219 16.10824219 16.5625 14.9375 C16.62727539 13.22723633 16.62727539 13.22723633 16.69335938 11.48242188 C16.79982839 8.65507805 16.90184207 5.82764262 17 3 C13.40645062 2.04012607 9.96522989 1.69756609 6.25 1.4375 C5.07953125 1.35371094 3.9090625 1.26992188 2.703125 1.18359375 C1.81109375 1.12300781 0.9190625 1.06242187 0 1 C0 0.67 0 0.34 0 0 Z " fill="#7176EE" transform="translate(12,53)"/>
<path d="M0 0 C3.9375 0.5 3.9375 0.5 5.66015625 1.66015625 C7.48023528 4.28173797 7.33596022 6.27428059 7.3125 9.4375 C7.32023438 10.47777344 7.32796875 11.51804687 7.3359375 12.58984375 C6.89051386 15.84318306 6.30326066 17.24128733 3.9375 19.5 C1.22988135 20.19328139 -1.31958359 19.98101248 -4.0625 19.5 C-6.73681489 17.68836733 -7.02170359 16.62238923 -8.0625 13.5 C-8.42574988 8.99570147 -8.58639962 6.54779924 -6.5625 2.5 C-3.93189611 0.39551688 -3.21624106 0.1421543 0 0 Z " fill="#F6F6F6" transform="translate(171.0625,48.5)"/>
<path d="M0 0 C1.5675 -0.061875 3.135 -0.12375 4.75 -0.1875 C6.07257813 -0.23970703 6.07257813 -0.23970703 7.421875 -0.29296875 C10.51104409 0.05807319 11.81363777 0.81363777 14 3 C14.55543436 6.81861121 14.53382262 9.05367809 12.625 12.4375 C8.47360478 14.90856858 4.77353037 14.25123844 0 14 C0 9.38 0 4.76 0 0 Z " fill="#F4F4F4" transform="translate(312,38)"/>
<path d="M0 0 C3.96 0 7.92 0 12 0 C12 6.27 12 12.54 12 19 C13.65 19.33 15.3 19.66 17 20 C17.125 22.875 17.125 22.875 17 26 C15 28 15 28 12.5 28.3125 C11.675 28.209375 10.85 28.10625 10 28 C8 25 8 25 8.3125 22.375 C9 20 9 20 10 19 C10.15582303 17.65984779 10.25044142 16.31241097 10.31640625 14.96484375 C10.35830078 14.15595703 10.40019531 13.34707031 10.44335938 12.51367188 C10.50233398 11.2384668 10.50233398 11.2384668 10.5625 9.9375 C10.60568359 9.08349609 10.64886719 8.22949219 10.69335938 7.34960938 C10.79976702 5.23327963 10.90041731 3.11666187 11 1 C7.7 1 4.4 1 1 1 C1.11347156 4.79233901 1.24022786 8.58341049 1.375 12.375 C1.4059375 13.45523438 1.436875 14.53546875 1.46875 15.6484375 C1.50742187 16.6796875 1.54609375 17.7109375 1.5859375 18.7734375 C1.6173584 19.72653809 1.6487793 20.67963867 1.68115234 21.66162109 C1.78555796 24.18895176 1.78555796 24.18895176 4 26 C4 27.32 4 28.64 4 30 C2.02 30 0.04 30 -2 30 C-2 28.68 -2 27.36 -2 26 C-1.34 26 -0.68 26 0 26 C0 17.42 0 8.84 0 0 Z " fill="#5982E8" transform="translate(32,56)"/>
<path d="M0 0 C1.95792062 0.9824318 3.87244564 2.00398258 5.765625 3.10546875 C3.890625 4.16796875 3.890625 4.16796875 1.765625 5.10546875 C1.105625 4.77546875 0.445625 4.44546875 -0.234375 4.10546875 C-6.94454451 3.30564333 -6.94454451 3.30564333 -13.22265625 5.22265625 C-14.62083994 6.45083745 -15.93520583 7.77298755 -17.234375 9.10546875 C-17.894375 9.10546875 -18.554375 9.10546875 -19.234375 9.10546875 C-18.97870621 5.65394014 -17.97240426 4.86058306 -15.359375 2.41796875 C-10.56485561 -1.1299756 -5.73216084 -2.29486859 0 0 Z " fill="#896BF4" transform="translate(33.234375,16.89453125)"/>
<path d="M0 0 C3.5625 0.25 3.5625 0.25 6.5625 2.25 C6.5625 3.9 6.5625 5.55 6.5625 7.25 C2.2725 7.25 -2.0175 7.25 -6.4375 7.25 C-5.06111624 0.36808118 -5.06111624 0.36808118 0 0 Z " fill="#F3F3F3" transform="translate(208.4375,47.75)"/>
<path d="M0 0 C0.639375 0.144375 1.27875 0.28875 1.9375 0.4375 C4.80770594 1.03026678 4.80770594 1.03026678 6.984375 1.11328125 C13.51158347 1.51833851 18.34797268 3.8022977 24 7 C22.65625 8.5078125 22.65625 8.5078125 21 10 C18.5 9.875 18.5 9.875 16 9 C15.31744141 8.22462891 15.31744141 8.22462891 14.62109375 7.43359375 C13.09538999 5.77957439 13.09538999 5.77957439 10.87890625 5.91796875 C10.11449219 6.00691406 9.35007812 6.09585937 8.5625 6.1875 C6.1640625 6.29296875 6.1640625 6.29296875 4 6 C1.4375 3 1.4375 3 0 0 Z " fill="#488AE3" transform="translate(36,21)"/>
<path d="M0 0 C3.40990297 0.487129 4.51618402 1.71945396 6.625 4.375 C6.625 5.035 6.625 5.695 6.625 6.375 C4.40714769 8.51070963 3.08184293 9.32061394 0 9.6875 C-2.375 9.375 -2.375 9.375 -4.375 7.375 C-4.625 4.875 -4.625 4.875 -4.375 2.375 C-2.375 0.375 -2.375 0.375 0 0 Z " fill="#9C3FFD" transform="translate(5.375,68.625)"/>
<path d="M0 0 C5.61 0 11.22 0 17 0 C16.34 0.66 15.68 1.32 15 2 C12.69 2 10.38 2 8 2 C8 8.27 8 14.54 8 21 C7.34 21 6.68 21 6 21 C6 14.73 6 8.46 6 2 C3.03 1.505 3.03 1.505 0 1 C0 0.67 0 0.34 0 0 Z " fill="#4178E3" transform="translate(38,54)"/>
<path d="M0 0 C3.63 0 7.26 0 11 0 C11 0.33 11 0.66 11 1 C7.7 1 4.4 1 1 1 C1.11347156 4.79233901 1.24022786 8.58341049 1.375 12.375 C1.4059375 13.45523438 1.436875 14.53546875 1.46875 15.6484375 C1.50742187 16.6796875 1.54609375 17.7109375 1.5859375 18.7734375 C1.6173584 19.72653809 1.6487793 20.67963867 1.68115234 21.66162109 C1.78555796 24.18895176 1.78555796 24.18895176 4 26 C4 27.32 4 28.64 4 30 C2.02 30 0.04 30 -2 30 C-2 28.68 -2 27.36 -2 26 C-1.34 26 -0.68 26 0 26 C0 17.42 0 8.84 0 0 Z " fill="#B7BBF5" transform="translate(32,56)"/>
<path d="M0 0 C1.32 0.66 2.64 1.32 4 2 C3.25 6.75 3.25 6.75 1 9 C-1.625 9.125 -1.625 9.125 -4 9 C-3.34 8.67 -2.68 8.34 -2 8 C-2.33 6.35 -2.66 4.7 -3 3 C-2.01 2.67 -1.02 2.34 0 2 C0 1.34 0 0.68 0 0 Z " fill="#2AABDA" transform="translate(70,67)"/>
<path d="M0 0 C0.66 0 1.32 0 2 0 C2.66964286 7.76785714 2.66964286 7.76785714 -0.3125 11.5 C-3 14 -3 14 -6 14 C-6 13.01 -6 12.02 -6 11 C-5.195625 10.236875 -4.39125 9.47375 -3.5625 8.6875 C-0.68594483 5.67062507 -0.28444914 4.07710437 0 0 Z " fill="#1BA3D7" transform="translate(71,41)"/>
<path d="M0 0 C0.33 0.66 0.66 1.32 1 2 C1.66 2.33 2.32 2.66 3 3 C2.67 3.33 2.34 3.66 2 4 C1.63239269 6.32817964 1.29758419 8.6618385 1 11 C-0.98 11.33 -2.96 11.66 -5 12 C-5 11.01 -5 10.02 -5 9 C-4.34 8.67 -3.68 8.34 -3 8 C-2.09656316 6.11736119 -2.09656316 6.11736119 -1.375 3.9375 C-1.11460938 3.20402344 -0.85421875 2.47054688 -0.5859375 1.71484375 C-0.39257812 1.14894531 -0.19921875 0.58304688 0 0 Z " fill="#8C4DF8" transform="translate(13,24)"/>
<path d="M0 0 C5.50366792 -0.32374517 9.43672206 -0.53286034 14 3 C12.25 4.125 12.25 4.125 10 5 C8.1875 4.1875 8.1875 4.1875 6 3 C3.67504723 2.61250787 1.34148732 2.27017161 -1 2 C-0.67 1.34 -0.34 0.68 0 0 Z " fill="#6368EC" transform="translate(25,17)"/>
<path d="M0 0 C0 0.99 0 1.98 0 3 C-2.31 3 -4.62 3 -7 3 C-7 5.64 -7 8.28 -7 11 C-7.33 11 -7.66 11 -8 11 C-8.103125 9.88625 -8.20625 8.7725 -8.3125 7.625 C-8.539375 6.42875 -8.76625 5.2325 -9 4 C-9.99 3.34 -10.98 2.68 -12 2 C-10.56342755 1.66269158 -9.12569907 1.33030409 -7.6875 1 C-6.88699219 0.814375 -6.08648437 0.62875 -5.26171875 0.4375 C-3 0 -3 0 0 0 Z " fill="#2C90DD" transform="translate(65,53)"/>
<path d="M0 0 C5.75 0.75 5.75 0.75 8 3 C5.64031256 5.09749995 4.45383006 5.96905704 1.25 6.1875 C0.13625 6.0946875 0.13625 6.0946875 -1 6 C-0.67 4.02 -0.34 2.04 0 0 Z " fill="#B177FC" transform="translate(4,72)"/>
<path d="M0 0 C1.32 0 2.64 0 4 0 C4 0.66 4 1.32 4 2 C3.01 2.495 3.01 2.495 2 3 C2 4.65 2 6.3 2 8 C1.01 8 0.02 8 -1 8 C-1 7.34 -1 6.68 -1 6 C-1.99 6 -2.98 6 -4 6 C-3.67 5.01 -3.34 4.02 -3 3 C-2.01 3 -1.02 3 0 3 C0 2.01 0 1.02 0 0 Z " fill="#269EDA" transform="translate(66,67)"/>
<path d="M0 0 C0.70125 0.144375 1.4025 0.28875 2.125 0.4375 C5.07556141 1.01478375 8.03270151 1.51695141 11 2 C10 4 10 4 6.9375 5.125 C5.4834375 5.558125 5.4834375 5.558125 4 6 C2.68 4.02 1.36 2.04 0 0 Z " fill="#5076E7" transform="translate(36,21)"/>
<path d="M0 0 C1.32 0.66 2.64 1.32 4 2 C4 3.32 4 4.64 4 6 C2.02 6 0.04 6 -2 6 C-2 4.68 -2 3.36 -2 2 C-1.34 2 -0.68 2 0 2 C0 1.34 0 0.68 0 0 Z " fill="#969DF2" transform="translate(32,80)"/>
<path d="M0 0 C0.66 0 1.32 0 2 0 C2.33 2.31 2.66 4.62 3 7 C1.35 7 -0.3 7 -2 7 C-1.125 1.125 -1.125 1.125 0 0 Z " fill="#93B0EF" transform="translate(44,77)"/>
<path d="M0 0 C2.97 0.33 5.94 0.66 9 1 C9 1.66 9 2.32 9 3 C7.02 3.66 5.04 4.32 3 5 C1.5 3.625 1.5 3.625 0 2 C0 1.34 0 0.68 0 0 Z " fill="#43A0E0" transform="translate(57,67)"/>
<path d="M0 0 C0.99 0.33 1.98 0.66 3 1 C2.34 2.65 1.68 4.3 1 6 C-0.32 6 -1.64 6 -3 6 C-2.67 4.68 -2.34 3.36 -2 2 C-1.34 2 -0.68 2 0 2 C0 1.34 0 0.68 0 0 Z " fill="#8AD0EA" transform="translate(70,67)"/>
<path d="M0 0 C2.31 0.33 4.62 0.66 7 1 C7.33 1.99 7.66 2.98 8 4 C4.28400809 4.20086443 3.22791555 4.1519437 0 2 C0 1.34 0 0.68 0 0 Z " fill="#9147F9" transform="translate(5,52)"/>
<path d="M0 0 C1.485 0.99 1.485 0.99 3 2 C3.1875 5.625 3.1875 5.625 3 9 C2.67 9 2.34 9 2 9 C2 7.02 2 5.04 2 3 C1.34 3 0.68 3 0 3 C0 4.98 0 6.96 0 9 C-0.33 9 -0.66 9 -1 9 C-1.09765625 2.84765625 -1.09765625 2.84765625 -1 1 C-0.67 0.67 -0.34 0.34 0 0 Z " fill="#57BEE1" transform="translate(71,38)"/>
<path d="M0 0 C0.66 0 1.32 0 2 0 C2 1.98 2 3.96 2 6 C1.01 6 0.02 6 -1 6 C-1.042721 4.33388095 -1.04063832 2.66617115 -1 1 C-0.67 0.67 -0.34 0.34 0 0 Z " fill="#4C85E4" transform="translate(47,76)"/>
<path d="M0 0 C2.88575819 0.39803561 3.82189513 0.79009069 5.75 3.0625 C6.1625 3.701875 6.575 4.34125 7 5 C5.35 4.67 3.7 4.34 2 4 C2 3.34 2 2.68 2 2 C1.34 2 0.68 2 0 2 C0 1.34 0 0.68 0 0 Z " fill="#8B39FA" transform="translate(5,69)"/>
<path d="M0 0 C1.32 0.66 2.64 1.32 4 2 C4 2.99 4 3.98 4 5 C3.01 5.495 3.01 5.495 2 6 C1.01 4.35 0.02 2.7 -1 1 C-0.67 0.67 -0.34 0.34 0 0 Z " fill="#22A4D9" transform="translate(67,34)"/>
<path d="M0 0 C2.86724686 0.57344937 3.8614515 0.8614515 6 3 C3 5 3 5 0.3125 4.625 C-0.450625 4.41875 -1.21375 4.2125 -2 4 C-0.68 3.67 0.64 3.34 2 3 C2 2.34 2 1.68 2 1 C1.34 0.67 0.68 0.34 0 0 Z " fill="#60A7E6" transform="translate(54,26)"/>
</svg>
