<svg width="24" height="24" viewBox="0 0 24 24" fill="none" xmlns="http://www.w3.org/2000/svg">
<g id="Icon/Outline/pencil-alt">
<path id="Vector" d="M11 5.00001H6C5.46957 5.00001 4.96086 5.21072 4.58579 5.5858C4.21071 5.96087 4 6.46958 4 7.00001V18C4 18.5304 4.21071 19.0391 4.58579 19.4142C4.96086 19.7893 5.46957 20 6 20H17C17.5304 20 18.0391 19.7893 18.4142 19.4142C18.7893 19.0391 19 18.5304 19 18V13M17.586 3.58601C17.7705 3.39499 17.9912 3.24262 18.2352 3.13781C18.4792 3.03299 18.7416 2.97782 19.0072 2.97551C19.2728 2.9732 19.5361 3.0238 19.7819 3.12437C20.0277 3.22493 20.251 3.37343 20.4388 3.56122C20.6266 3.74901 20.7751 3.97231 20.8756 4.2181C20.9762 4.46389 21.0268 4.72725 21.0245 4.99281C21.0222 5.25837 20.967 5.52081 20.8622 5.76482C20.7574 6.00883 20.605 6.22952 20.414 6.41401L11.828 15H9V12.172L17.586 3.58601Z" stroke="#ffffff" stroke-width="2" stroke-linecap="round" stroke-linejoin="round"/>
</g>
</svg>
